<?xml version="1.0" encoding="utf-8"?>
<!-- Generator: Adobe Illustrator 16.0.0, SVG Export Plug-In . SVG Version: 6.00 Build 0)  -->
<!DOCTYPE svg PUBLIC "-//W3C//DTD SVG 1.1//EN" "http://www.w3.org/Graphics/SVG/1.1/DTD/svg11.dtd">
<svg version="1.1" id="Capa_1" xmlns="http://www.w3.org/2000/svg" xmlns:xlink="http://www.w3.org/1999/xlink" x="0px" y="0px"
	 width="512px" height="512px" viewBox="0 0 512 512" enable-background="new 0 0 512 512" xml:space="preserve">
<g>
	<path fill="#000300" d="M496.857,403.745L496.857,403.745V298.798l-13.804-82.753H351.552l42.723,31.953v50.622l-27.58-20.405
		v10.046h-8.187v115.457h-8.528V277.204h8.187v-15.197h-12.642l-95.859-70.548l-92.579,72.256h-11.22v15.225h9.225v124.792h-8.993
		V289.996h-9.225v-6.369l-19.598,16.277v-51.646l39.265-32.199H20.527L6.724,298.812v104.934H0v39.661h512v-39.661H496.857z
		 M67.377,383.272H21.635v-25.038h45.743V383.272z M67.377,343.283H21.635v-25.01h45.743V343.283z M86.347,383.272v-25.038h45.729
		v25.038H86.347z M86.361,343.283v-25.01h45.729v25.01H86.361z M251.415,222.468c10.018,0,18.122,8.132,18.122,18.123
		c0,9.99-8.104,18.122-18.122,18.122c-10.004,0-18.123-8.132-18.123-18.122C233.292,230.6,241.411,222.468,251.415,222.468z
		 M325.052,403.718h-10.045V289.49H185.076v114.228h-9.102V278.926h8.747v-5.877h134.646v4.155h5.686V403.718z M412.547,380.676
		h-45.729v-25.038h45.729V380.676z M412.547,340.673h-45.729v-25.011h45.729V340.673z M477.259,380.676h-45.729v-25.038h45.729
		V380.676z M477.259,340.673h-45.729v-25.011h45.729V340.673z M250.034,148.626h-2.788V73.938h5.835v1.421
		c6.396,2.788,21.881,8.077,30.6-1.38c11.166-12.095,30.724,0,30.724,0v34.468c0,0-15.826-13.024-30.724,0
		c-11.329,9.895-24.791,4.742-30.6,1.694v38.472v0.014h-3.021l135.685,101.476v28.851L248.504,177.45l-122.25,101.503v-28.851
		L250.034,148.626z"/>
</g>
</svg>
