<?xml version="1.0" encoding="iso-8859-1"?>
<!-- Generator: Adobe Illustrator 16.0.0, SVG Export Plug-In . SVG Version: 6.00 Build 0)  -->
<!DOCTYPE svg PUBLIC "-//W3C//DTD SVG 1.1//EN" "http://www.w3.org/Graphics/SVG/1.1/DTD/svg11.dtd">
<svg version="1.1" id="Capa_1" xmlns="http://www.w3.org/2000/svg" xmlns:xlink="http://www.w3.org/1999/xlink" x="0px" y="0px"
	 width="39.066px" height="39.065px" viewBox="0 0 39.066 39.065" style="enable-background:new 0 0 39.066 39.065;"
	 xml:space="preserve">
<g>
	<path d="M28.427,16.875v1.25h1.833v-1.25h2.334v1.25h1.833v-1.172h2.334v1.172v2.328v0.006H26.093v-0.084v-2.25v-1.25H28.427z
		 M12.973,20.453v-2.328v-1.172h-2.334v1.172H8.806v-1.25H6.472v1.25H4.639v-1.25H2.305v1.25v2.25v0.084h10.668V20.453z
		 M35.978,21.291v13.828c-1.18-0.663-2.479-1.029-3.836-1.029c-0.197,0-0.398,0.01-0.611,0.029c-0.908-0.92-2.051-1.42-3.268-1.42
		c-0.322,0-0.648,0.043-0.988,0.131c-2.213-1.755-4.938-2.715-7.738-2.715c-2.049,0-4.061,0.514-5.873,1.491
		c-0.934-1.072-2.19-1.69-3.5-1.69c-2.298,0-4.242,1.789-4.839,4.35c-0.779,0.168-1.528,0.467-2.237,0.865v-10.09v-3.75h9.141v3.75
		h2.734V12.479h-2.93l7.1-7.101V0h0.8v0.301c2.197,3.945,4.393-2.813,6.59,1.665c-2.197-3.199-4.394,4.839-6.59,2.173v1.24
		l7.1,7.101h-2.93v12.562h2.734v-3.75L35.978,21.291L35.978,21.291z M21.545,15.726c0-1.111-0.9-2.012-2.012-2.012
		s-2.012,0.9-2.012,2.012v3.953h4.023L21.545,15.726L21.545,15.726z M32.142,35.09c-0.342,0-0.678,0.035-1.008,0.086
		c-0.732-0.912-1.747-1.477-2.871-1.477c-0.423,0-0.822,0.102-1.206,0.25c-2.028-1.764-4.651-2.834-7.521-2.834
		c-2.259,0-4.36,0.67-6.145,1.811c-0.737-1.213-1.903-2.01-3.229-2.01c-2.023,0-3.685,1.834-3.979,4.221
		c-2.335,0.265-4.379,1.748-5.713,3.929h38.125C37.121,36.655,34.783,35.09,32.142,35.09z"/>
</g>
<g>
</g>
<g>
</g>
<g>
</g>
<g>
</g>
<g>
</g>
<g>
</g>
<g>
</g>
<g>
</g>
<g>
</g>
<g>
</g>
<g>
</g>
<g>
</g>
<g>
</g>
<g>
</g>
<g>
</g>
</svg>
