<?xml version="1.0" encoding="utf-8"?>
<!-- Generator: Adobe Illustrator 16.0.0, SVG Export Plug-In . SVG Version: 6.00 Build 0)  -->
<!DOCTYPE svg PUBLIC "-//W3C//DTD SVG 1.1//EN" "http://www.w3.org/Graphics/SVG/1.1/DTD/svg11.dtd">
<svg version="1.1" id="Layer_1" xmlns="http://www.w3.org/2000/svg" xmlns:xlink="http://www.w3.org/1999/xlink" x="0px" y="0px"
	 width="612px" height="792px" viewBox="0 0 612 792" enable-background="new 0 0 612 792" xml:space="preserve">
<ellipse fill="#FFFFFF" cx="306" cy="396" rx="279.066" ry="278.515"/>
<path d="M431.048,299.371l-17.985-19.611l-95.964,88.004c-3.44-1.354-7.185-2.107-11.105-2.107c-3.232,0-6.346,0.511-9.268,1.448
	L162.577,227.143l-19.209,18.412l134.145,139.958c-1.204,3.268-1.862,6.798-1.862,10.484c0,16.752,13.586,30.347,30.343,30.347
	s30.344-13.597,30.344-30.347c0-2.996-0.442-5.889-1.251-8.623L431.048,299.371z"/>
<path d="M522.364,180.025C464.57,122.346,387.731,90.579,306,90.579s-158.57,31.767-216.365,89.447C31.833,237.713,0,314.414,0,396
	c0,81.586,31.833,158.287,89.635,215.975C147.43,669.654,224.27,701.421,306,701.421c81.729,0,158.57-31.765,216.364-89.446
	C580.167,554.287,612,477.586,612,396C612,314.414,580.167,237.713,522.364,180.025z M319.298,674.489V592.46h-26.609v82.028
	c-143.48-6.75-258.981-122.004-265.756-265.184h82.599v-26.609H26.933c6.775-143.18,122.275-258.435,265.754-265.185v82.028h26.609
	v-82.028c143.487,6.744,258.994,122,265.77,265.185h-82.611v26.609h82.611C578.291,552.489,462.784,667.745,319.298,674.489z"/>
<path d="M422.296,504.794l-96.807-107.067c0.051-0.572,0.088-1.148,0.088-1.733c0-10.82-8.758-19.579-19.584-19.579
	c-10.827,0-19.585,8.758-19.585,19.579c0,10.751,8.63,19.448,19.345,19.579l96.805,107.066L422.296,504.794z"/>
</svg>
