<?xml version="1.0" encoding="utf-8"?>
<!-- Generator: Adobe Illustrator 16.0.0, SVG Export Plug-In . SVG Version: 6.00 Build 0)  -->
<!DOCTYPE svg PUBLIC "-//W3C//DTD SVG 1.1//EN" "http://www.w3.org/Graphics/SVG/1.1/DTD/svg11.dtd">
<svg version="1.1" id="Capa_1" xmlns="http://www.w3.org/2000/svg" xmlns:xlink="http://www.w3.org/1999/xlink" x="0px" y="0px"
	 width="512px" height="512px" viewBox="0 0 512 512" enable-background="new 0 0 512 512" xml:space="preserve">
<g>
	<g>
		<g>
			<path d="M502.897,276.254c-0.763-2.651-2.354-4.99-4.539-6.676c-18.565-14.312-37.628-22.182-56.52-23.957
				c0,0-2.517-0.405-8.578-0.405c-6.064,0-9.154,0.395-9.154,0.395c-18.217,2.148-36.459,10.17-54.358,23.968
				c-2.188,1.684-3.777,4.025-4.54,6.676c-8.786,30.455-11.13,59.67-7.382,91.941c3.314,28.528,11.174,57.163,20.344,88.95
				c0.764,2.652,2.355,4.992,4.54,6.676c14.057,10.838,32.289,16.802,51.34,16.802c19.05,0,37.286-5.964,51.344-16.799
				c2.185-1.684,3.777-4.027,4.542-6.678c9.17-31.791,17.029-60.422,20.344-88.947C514.027,335.924,511.684,306.706,502.897,276.254
				z M445.396,329.141c0,6.266-5.081,11.346-11.346,11.346c-6.266,0-11.343-5.08-11.343-11.346v-47.316
				c0-6.264,5.077-11.346,11.343-11.346c6.265,0,11.346,5.082,11.346,11.346V329.141z"/>
			<path d="M347.724,450.217h-20.457l-16.882-57.399h34.458c-1.076-6.153-1.997-12.302-2.716-18.476
				c-2.174-18.722-2.436-36.507-0.76-54.064H39.568V67.076h408.86v162.538c13.321,1.336,26.551,5.226,39.567,11.6V47.292
				c0-10.926-8.859-19.784-19.783-19.784H19.784C8.858,27.508,0,36.366,0,47.292v325.741c0,10.928,8.858,19.784,19.784,19.784
				h157.825l-16.88,57.399h-20.454c-5.194,0-9.405,4.21-9.405,9.404v15.466c0,5.193,4.211,9.404,9.405,9.404h207.448
				c5.193,0,9.403-4.21,9.403-9.404v-15.466C357.124,454.427,352.916,450.217,347.724,450.217z"/>
		</g>
	</g>
</g>
</svg>
