<svg xmlns="http://www.w3.org/2000/svg" viewBox="0 0 166 166"><defs><style>.cls-1,.cls-4{fill:#b77854;}.cls-1{stroke:#f8ed82;stroke-width:6px;}.cls-2{fill:#a3694e;}.cls-3{fill:#905f4c;}.cls-5{fill:#fde47f;}.cls-6{fill:#fdc65f;}.cls-7{fill:#6d4142;}.cls-8{fill:#774b47;}.cls-9{fill:#9e786f;}</style></defs><title>Fichier 2</title><g id="Calque_2" data-name="Calque 2"><g id="Calque_1-2" data-name="Calque 1"><circle class="cls-1" cx="83" cy="83" r="80"/><path class="cls-2" d="M109.05,87.32l-.12-.11H53l-.12.11c-2.26,1.07-19.48,9.53-17,19.23,1.18,4.68,5.89,5.66,8.68,5.82,2.15,16.33,17.63,29,36.43,29s34.28-12.67,36.43-29c2.79-.16,7.5-1.14,8.68-5.82C128.53,96.85,111.31,88.39,109.05,87.32Z"/><path class="cls-3" d="M81,104.62A45.15,45.15,0,0,0,114.49,90.3a57.28,57.28,0,0,0-5.44-3l-.12-.11H53l-.12.11a57.19,57.19,0,0,0-5.44,3A45.15,45.15,0,0,0,81,104.62Z"/><path class="cls-3" d="M52.88,87.32h0c-2.26,1.07-19.48,9.53-17,19.23,1.18,4.68,5.89,5.66,8.68,5.82,2.15,16.33,17.63,29,36.43,29a41,41,0,0,0,6.39-.51l.09,0c-17.18-2.75-30.23-16.17-30.23-32.35A30.77,30.77,0,0,1,66,87.21H53S52.94,87.32,52.88,87.32Z"/><ellipse class="cls-2" cx="52.89" cy="42.7" rx="15.12" ry="13.54"/><ellipse class="cls-3" cx="52.89" cy="42.7" rx="10.8" ry="9.67"/><ellipse class="cls-2" cx="109.04" cy="42.7" rx="15.12" ry="13.54"/><ellipse class="cls-3" cx="109.04" cy="42.7" rx="10.8" ry="9.67"/><path class="cls-4" d="M115.44,122.11c-1.95-1.74-4.81-2.38-8.07-1.8a17.59,17.59,0,0,0-8.45,4.26,14.87,14.87,0,0,0-4.76,7.57,7.18,7.18,0,0,0,2,7.23,8.49,8.49,0,0,0,5.78,2,13,13,0,0,0,2.29-.21,17.58,17.58,0,0,0,8.45-4.26,14.86,14.86,0,0,0,4.76-7.57A7.18,7.18,0,0,0,115.44,122.11Z"/><ellipse class="cls-4" cx="80.97" cy="65.92" rx="38.87" ry="34.83"/><path class="cls-2" d="M55.81,65.92c0-17.13,13.82-31.35,32-34.25A43.38,43.38,0,0,0,81,31.09c-21.47,0-38.87,15.59-38.87,34.83S59.5,100.75,81,100.75a43.35,43.35,0,0,0,6.86-.57C69.64,97.27,55.81,83.05,55.81,65.92Z"/><ellipse class="cls-5" cx="80.97" cy="85.27" rx="17.04" ry="13.54"/><path class="cls-6" d="M69.93,85.27C69.93,78.61,76,73.08,84,72a21.38,21.38,0,0,0-3-.22c-9.41,0-17,6.06-17,13.54s7.63,13.54,17,13.54a21.38,21.38,0,0,0,3-.22C76,97.47,69.93,91.94,69.93,85.27Z"/><path class="cls-7" d="M64.77,71.73h0a3.08,3.08,0,0,1-3.24-2.9V66.89A3.08,3.08,0,0,1,64.77,64h0A3.08,3.08,0,0,1,68,66.89v1.94A3.08,3.08,0,0,1,64.77,71.73Z"/><path class="cls-7" d="M97.16,71.73h0a3.08,3.08,0,0,1-3.24-2.9V66.89A3.08,3.08,0,0,1,97.16,64h0a3.08,3.08,0,0,1,3.24,2.9v1.94A3.08,3.08,0,0,1,97.16,71.73Z"/><path class="cls-4" d="M63,124.58a17.59,17.59,0,0,0-8.45-4.26c-3.25-.58-6.13.05-8.07,1.8a7.18,7.18,0,0,0-2,7.23,14.87,14.87,0,0,0,4.76,7.57,17.57,17.57,0,0,0,8.45,4.26,13,13,0,0,0,2.29.21,8.49,8.49,0,0,0,5.78-2,7.18,7.18,0,0,0,2-7.23A14.88,14.88,0,0,0,63,124.58Z"/><path class="cls-2" d="M55.09,136.91a14.86,14.86,0,0,1-4.76-7.57,7.18,7.18,0,0,1,2-7.23,7.62,7.62,0,0,1,3-1.61c-.24-.06-.49-.15-.73-.19-3.25-.58-6.13.05-8.07,1.8a7.18,7.18,0,0,0-2,7.23,14.87,14.87,0,0,0,4.76,7.57,17.57,17.57,0,0,0,8.45,4.26,13,13,0,0,0,2.29.21,9.89,9.89,0,0,0,2.8-.41A17.73,17.73,0,0,1,55.09,136.91Z"/><path class="cls-3" d="M102,139.37a7.18,7.18,0,0,1-2-7.23,14.88,14.88,0,0,1,4.76-7.57,17.75,17.75,0,0,1,7.72-4.07,11.08,11.08,0,0,0-5.11-.19,17.59,17.59,0,0,0-8.45,4.26,14.87,14.87,0,0,0-4.76,7.57,7.18,7.18,0,0,0,2,7.23,8.49,8.49,0,0,0,5.78,2,13,13,0,0,0,2.29-.21c.25,0,.5-.14.75-.2A7.63,7.63,0,0,1,102,139.37Z"/><path class="cls-3" d="M91.13,83.69a2.34,2.34,0,0,0-3.05,0,4,4,0,0,1-5,.64V77.53a2.17,2.17,0,0,0-4.32,0v6.79a4.05,4.05,0,0,1-5-.63,2.34,2.34,0,0,0-3.05,0,1.8,1.8,0,0,0,0,2.74,8.62,8.62,0,0,0,5.85,2.33A9.26,9.26,0,0,0,81,87.64a9.26,9.26,0,0,0,4.31,1.11,8.62,8.62,0,0,0,5.85-2.33A1.8,1.8,0,0,0,91.13,83.69Z"/><ellipse class="cls-8" cx="80.97" cy="74.63" rx="8.64" ry="4.84"/><path class="cls-7" d="M76.65,74.63c0-2.25,2.76-4.13,6.48-4.67A15,15,0,0,0,81,69.79c-4.77,0-8.64,2.17-8.64,4.84S76.2,79.47,81,79.47a15,15,0,0,0,2.16-.17C79.41,78.76,76.65,76.88,76.65,74.63Z"/><ellipse class="cls-9" cx="85.29" cy="73.66" rx="2.16" ry="1.93"/></g></g></svg>