<svg xmlns="http://www.w3.org/2000/svg" viewBox="0 0 160 160"><defs><style>.cls-1{fill:#fff;}.cls-2{fill:#a3694e;}.cls-3{fill:#905f4c;}.cls-4{fill:#b77854;}.cls-5{fill:#fde47f;}.cls-6{fill:#fdc65f;}.cls-7{fill:#6d4142;}.cls-8{fill:#774b47;}.cls-9{fill:#9e786f;}</style></defs><title>Fichier 2</title><g id="Calque_2" data-name="Calque 2"><g id="Calque_1-2" data-name="Calque 1"><circle class="cls-1" cx="80" cy="80" r="80"/><path class="cls-2" d="M111.32,84.32l-.12-.11H55.28l-.12.11c-2.26,1.07-19.48,9.53-17,19.23,1.18,4.68,5.89,5.66,8.68,5.82,2.15,16.33,17.63,29,36.43,29s34.28-12.67,36.43-29c2.79-.16,7.5-1.14,8.68-5.82C130.8,93.85,113.59,85.39,111.32,84.32Z"/><path class="cls-3" d="M83.24,101.62A45.15,45.15,0,0,0,116.77,87.3a57.28,57.28,0,0,0-5.44-3l-.12-.11H55.28l-.12.11a57.19,57.19,0,0,0-5.44,3A45.15,45.15,0,0,0,83.24,101.62Z"/><path class="cls-3" d="M55.16,84.32h0c-2.26,1.07-19.48,9.53-17,19.23,1.18,4.68,5.89,5.66,8.68,5.82,2.15,16.33,17.63,29,36.43,29a41,41,0,0,0,6.39-.51l.09,0c-17.18-2.75-30.23-16.17-30.23-32.35a30.77,30.77,0,0,1,8.74-21.28h-13S55.21,84.32,55.16,84.32Z"/><ellipse class="cls-2" cx="55.16" cy="39.7" rx="15.12" ry="13.54"/><ellipse class="cls-3" cx="55.16" cy="39.7" rx="10.8" ry="9.67"/><ellipse class="cls-2" cx="111.31" cy="39.7" rx="15.12" ry="13.54"/><ellipse class="cls-3" cx="111.31" cy="39.7" rx="10.8" ry="9.67"/><path class="cls-4" d="M117.71,119.11c-1.95-1.74-4.81-2.38-8.07-1.8a17.59,17.59,0,0,0-8.45,4.26,14.87,14.87,0,0,0-4.76,7.57,7.18,7.18,0,0,0,2,7.23,8.49,8.49,0,0,0,5.78,2,13,13,0,0,0,2.29-.21,17.58,17.58,0,0,0,8.45-4.26,14.86,14.86,0,0,0,4.76-7.57A7.18,7.18,0,0,0,117.71,119.11Z"/><ellipse class="cls-4" cx="83.24" cy="62.92" rx="38.87" ry="34.83"/><path class="cls-2" d="M58.09,62.92c0-17.13,13.82-31.35,32-34.25a43.38,43.38,0,0,0-6.86-.57c-21.47,0-38.87,15.59-38.87,34.83s17.4,34.83,38.87,34.83a43.35,43.35,0,0,0,6.86-.57C71.91,94.27,58.09,80.05,58.09,62.92Z"/><ellipse class="cls-5" cx="83.24" cy="82.27" rx="17.04" ry="13.54"/><path class="cls-6" d="M72.2,82.27c0-6.66,6.06-12.19,14-13.32a21.38,21.38,0,0,0-3-.22c-9.41,0-17,6.06-17,13.54s7.63,13.54,17,13.54a21.38,21.38,0,0,0,3-.22C78.26,94.47,72.2,88.94,72.2,82.27Z"/><path class="cls-7" d="M67,68.73h0a3.08,3.08,0,0,1-3.24-2.9V63.89A3.08,3.08,0,0,1,67,61h0a3.08,3.08,0,0,1,3.24,2.9v1.94A3.08,3.08,0,0,1,67,68.73Z"/><path class="cls-7" d="M99.44,68.73h0a3.08,3.08,0,0,1-3.24-2.9V63.89A3.08,3.08,0,0,1,99.44,61h0a3.08,3.08,0,0,1,3.24,2.9v1.94A3.08,3.08,0,0,1,99.44,68.73Z"/><path class="cls-4" d="M65.29,121.58a17.59,17.59,0,0,0-8.45-4.26c-3.25-.58-6.13.05-8.07,1.8a7.18,7.18,0,0,0-2,7.23,14.87,14.87,0,0,0,4.76,7.57A17.57,17.57,0,0,0,60,138.17a13,13,0,0,0,2.29.21,8.49,8.49,0,0,0,5.78-2,7.18,7.18,0,0,0,2-7.23A14.88,14.88,0,0,0,65.29,121.58Z"/><path class="cls-2" d="M57.36,133.91a14.86,14.86,0,0,1-4.76-7.57,7.18,7.18,0,0,1,2-7.23,7.62,7.62,0,0,1,3-1.61c-.24-.06-.49-.15-.73-.19-3.25-.58-6.13.05-8.07,1.8a7.18,7.18,0,0,0-2,7.23,14.87,14.87,0,0,0,4.76,7.57A17.57,17.57,0,0,0,60,138.17a13,13,0,0,0,2.29.21,9.89,9.89,0,0,0,2.8-.41A17.73,17.73,0,0,1,57.36,133.91Z"/><path class="cls-3" d="M104.28,136.37a7.18,7.18,0,0,1-2-7.23,14.88,14.88,0,0,1,4.76-7.57,17.75,17.75,0,0,1,7.72-4.07,11.08,11.08,0,0,0-5.11-.19,17.59,17.59,0,0,0-8.45,4.26,14.87,14.87,0,0,0-4.76,7.57,7.18,7.18,0,0,0,2,7.23,8.49,8.49,0,0,0,5.78,2,13,13,0,0,0,2.29-.21c.25,0,.5-.14.75-.2A7.63,7.63,0,0,1,104.28,136.37Z"/><path class="cls-3" d="M93.4,80.69a2.34,2.34,0,0,0-3.05,0,4,4,0,0,1-5,.64V74.53a2.17,2.17,0,0,0-4.32,0v6.79a4.05,4.05,0,0,1-5-.63,2.34,2.34,0,0,0-3.05,0,1.8,1.8,0,0,0,0,2.74,8.62,8.62,0,0,0,5.85,2.33,9.26,9.26,0,0,0,4.31-1.11,9.26,9.26,0,0,0,4.31,1.11,8.62,8.62,0,0,0,5.85-2.33A1.8,1.8,0,0,0,93.4,80.69Z"/><ellipse class="cls-8" cx="83.24" cy="71.63" rx="8.64" ry="4.84"/><path class="cls-7" d="M78.92,71.63c0-2.25,2.76-4.13,6.48-4.67a15,15,0,0,0-2.16-.17c-4.77,0-8.64,2.17-8.64,4.84s3.87,4.84,8.64,4.84a15,15,0,0,0,2.16-.17C81.68,75.76,78.92,73.88,78.92,71.63Z"/><ellipse class="cls-9" cx="87.56" cy="70.66" rx="2.16" ry="1.93"/></g></g></svg>