<?xml version="1.0" encoding="utf-8"?>
<!-- Generator: Adobe Illustrator 16.0.0, SVG Export Plug-In . SVG Version: 6.00 Build 0)  -->
<!DOCTYPE svg PUBLIC "-//W3C//DTD SVG 1.1//EN" "http://www.w3.org/Graphics/SVG/1.1/DTD/svg11.dtd">
<svg version="1.1" id="Capa_1" xmlns="http://www.w3.org/2000/svg" xmlns:xlink="http://www.w3.org/1999/xlink" x="0px" y="0px"
	 width="512px" height="512px" viewBox="0 0 512 512" enable-background="new 0 0 512 512" xml:space="preserve">
<g>
	<g>
		<path d="M258.813,122.231c86.271,0.847,140.316-4.521,147.616,91.101h105.202c0-148.134-129.192-168.101-255.557-168.101
			C129.7,45.232,0.518,65.199,0.518,213.333h104.386C112.98,115.888,173.259,121.395,258.813,122.231z"/>
		<path d="M52.691,260.955c25.623,0,46.945,1.533,51.685-23.672c0.637-3.426,1.006-7.31,1.006-11.801h-1.215H0
			C0,262.977,23.592,260.955,52.691,260.955z"/>
		<path d="M407.106,225.482h-0.986c0,4.521,0.389,8.415,1.116,11.801c4.999,23.244,26.29,21.799,51.824,21.799
			c29.238,0,52.939,1.922,52.939-33.6H407.106L407.106,225.482z"/>
		<path d="M355.71,199.948V185.05c0-6.663-7.678-7.081-17.158-7.081h-15.485c-9.471,0-17.149,0.418-17.149,7.081v12.836v9.958
			H196.373v-9.958V185.05c0-6.663-7.678-7.081-17.148-7.081h-15.496c-9.471,0-17.149,0.418-17.149,7.081v14.898v13.006
			C121.624,238.886,39.964,349.277,36.996,362.642l0.04,89.179c0,8.236,6.702,14.938,14.938,14.938h398.343
			c8.236,0,14.938-6.701,14.938-14.938v-89.627c-2.938-12.977-84.578-123.317-109.545-149.249V199.948z M190.976,374.642
			c-8.017,0-14.52-6.493-14.52-14.52s6.503-14.521,14.52-14.521s14.52,6.494,14.52,14.521S198.992,374.642,190.976,374.642z
			 M190.976,324.849c-8.017,0-14.52-6.493-14.52-14.52s6.503-14.52,14.52-14.52s14.52,6.493,14.52,14.52
			S198.992,324.849,190.976,324.849z M190.976,275.065c-8.017,0-14.52-6.493-14.52-14.52c0-8.017,6.503-14.52,14.52-14.52
			s14.52,6.503,14.52,14.52C205.495,268.572,198.992,275.065,190.976,275.065z M250.727,374.642c-8.017,0-14.52-6.493-14.52-14.52
			s6.503-14.521,14.52-14.521c8.027,0,14.519,6.494,14.519,14.521S258.754,374.642,250.727,374.642z M250.727,324.849
			c-8.017,0-14.52-6.493-14.52-14.52s6.503-14.52,14.52-14.52c8.027,0,14.519,6.493,14.519,14.52S258.754,324.849,250.727,324.849z
			 M250.727,275.065c-8.017,0-14.52-6.493-14.52-14.52c0-8.017,6.503-14.52,14.52-14.52c8.027,0,14.519,6.503,14.519,14.52
			C265.246,268.572,258.754,275.065,250.727,275.065z M310.479,374.642c-8.026,0-14.52-6.493-14.52-14.52s6.493-14.521,14.52-14.521
			s14.52,6.494,14.52,14.521S318.505,374.642,310.479,374.642z M310.479,324.849c-8.026,0-14.52-6.493-14.52-14.52
			s6.493-14.52,14.52-14.52s14.52,6.493,14.52,14.52S318.505,324.849,310.479,324.849z M310.479,275.065
			c-8.026,0-14.52-6.493-14.52-14.52c0-8.017,6.493-14.52,14.52-14.52s14.52,6.503,14.52,14.52
			C324.998,268.572,318.505,275.065,310.479,275.065z"/>
	</g>
</g>
</svg>
